<svg width="29" height="28" viewBox="0 0 29 28" fill="none" xmlns="http://www.w3.org/2000/svg">
<path d="M2.59873 21.9975C4.78683 25.033 8.13002 27.1092 11.8982 27.7728C15.6665 28.4364 19.5536 27.6335 22.7107 25.5393C25.8678 23.4451 28.0385 20.2299 28.7486 16.5957C29.4588 12.9615 28.6508 9.20362 26.501 6.1427C24.3512 3.08178 21.0344 0.9665 17.2748 0.258783C13.5152 -0.448934 9.61827 0.308411 6.43505 2.36543C3.25182 4.42246 1.0409 7.61203 0.285105 11.2376C-0.470693 14.8632 0.487606 18.9116 2.59873 21.9975L3.08919 21.6679C1.06506 18.7092 0.146255 14.8277 0.870907 11.3515C1.59556 7.87528 3.71536 4.81715 6.76741 2.8449C9.81945 0.872648 13.5558 0.146514 17.1604 0.825065C20.7651 1.50362 23.9453 3.53172 26.0064 6.4665C28.0676 9.40128 28.8424 13.0043 28.1615 16.4887C27.4806 19.9731 25.3994 23.0559 22.3723 25.0638C19.3453 27.0716 15.6184 27.8415 12.0055 27.2053C8.39253 26.569 5.18711 24.5783 3.08919 21.6679L2.59873 21.9975Z" fill="white"/>
<path d="M22.0118 12.3274C22.0132 12.4981 21.9811 12.667 21.9179 12.8216C21.8546 12.9763 21.7619 13.1127 21.6464 13.2209L15.6738 18.7733C15.4957 18.9423 15.2717 19.0354 15.04 19.0367C14.8083 19.0379 14.5834 18.9471 14.4035 18.78L8.37196 13.0963C8.16668 12.9033 8.03675 12.6252 8.01078 12.3231C7.98481 12.0209 8.06491 11.7196 8.23347 11.4852C8.40202 11.2509 8.64523 11.1029 8.90957 11.0736C9.17392 11.0443 9.43776 11.1363 9.64305 11.3292L15.0312 16.4105L20.3667 11.4444C20.5128 11.3039 20.6911 11.2141 20.8805 11.1858C21.07 11.1575 21.2627 11.1919 21.4357 11.2848C21.6088 11.3777 21.755 11.5252 21.8571 11.71C21.9592 11.8947 22.0129 12.109 22.0118 12.3274Z" fill="white"/>
</svg>
