<svg width="11" height="12" viewBox="0 0 11 12" fill="none" xmlns="http://www.w3.org/2000/svg">
<path d="M2.235 0.192416C2.00672 0.0640967 1.74882 -0.0022218 1.48695 5.67965e-05C1.22508 0.00233539 0.968374 0.0731318 0.742357 0.205404C0.516341 0.337677 0.328892 0.526817 0.198654 0.754012C0.0684162 0.981207 -7.26363e-05 1.23854 5.78078e-08 1.50042V10.5004C0.00010191 10.7622 0.0687177 11.0194 0.199027 11.2465C0.329337 11.4735 0.516802 11.6625 0.742789 11.7947C0.968776 11.9268 1.22542 11.9975 1.4872 11.9998C1.74898 12.002 2.00679 11.9357 2.235 11.8074L10.235 7.30742C10.4668 7.17688 10.6597 6.98704 10.794 6.75737C10.9282 6.52769 10.999 6.26645 10.999 6.00042C10.999 5.73439 10.9282 5.47314 10.794 5.24347C10.6597 5.01379 10.4668 4.82396 10.235 4.69342L2.235 0.193417V0.192416Z" fill="black"/>
</svg>
